<svg xmlns:svg="http://www.w3.org/2000/svg" xmlns="http://www.w3.org/2000/svg" version="1.1" id="svg815" width="64" height="64" viewBox="0 0 64 64"><metadata id="metadata821"/><defs id="defs819"/><g id="layer1"><path d="M19 1C9.028 1 1 9.028 1 19L1 45C1 54.972 9.028 63 19 63L45 63C54.972 63 63 54.972 63 45L63 19C63 9.028 54.972 1 45 1L19 1zM42.066406 16.388672C46.346951 16.400673 49.492387 19.633628 50.421875 22.851562 52.949603 31.602684 39.526886 41.677102 32.033203 47.945312 24.351693 41.407295 8.9246365 30.119981 14.419922 20.857422 17.595398 15.50501 24.762219 13.964925 32.033203 21.923828 35.677744 17.879687 39.137613 16.38046 42.066406 16.388672z" id="rect826" fill="#25ba84"/></g></svg>
