<svg xmlns:svg="http://www.w3.org/2000/svg" xmlns="http://www.w3.org/2000/svg" width="256" height="256" viewBox="0 0 67.733332 67.733335" version="1.1" id="svg8"><defs id="defs2"><linearGradient id="linearGradient872"><stop offset="0" id="stop868" style="stop-color:#ad1457;stop-opacity:1"/><stop offset="1" id="stop870" style="stop-color:#ad1457;stop-opacity:0"/></linearGradient><linearGradient id="linearGradient1301"><stop offset="0" id="stop1297" style="stop-color:#546e7a;stop-opacity:1"/><stop offset="1" id="stop1299" style="stop-color:#546e7a;stop-opacity:0"/></linearGradient><linearGradient id="linearGradient1279"><stop offset="0" id="stop1275" style="stop-color:#ff8f00;stop-opacity:1"/><stop offset="1" id="stop1277" style="stop-color:#ff8f00;stop-opacity:0"/></linearGradient><mask id="mask-2" maskContentUnits="userSpaceOnUse" maskUnits="objectBoundingBox" x="0" y="0" width="3" height="8" fill="white"><rect rx="0.10500651" height="0.56003469" width="0.21001302" y="0.77004772" x="0" id="use7" stroke-width="0.07000434"/></mask><mask id="mask-4" maskContentUnits="userSpaceOnUse" maskUnits="objectBoundingBox" x="0" y="0" width="3" height="8" fill="white"><rect rx="0.10500651" height="0.56003469" width="0.21001302" y="0.77004772" x="0.070004337" id="use11" stroke-width="0.07000434"/></mask><rect rx="1.5" height="8" width="3" y="11" x="0" id="path-1"/><mask fill="white" height="8" width="3" y="0" x="0" maskUnits="objectBoundingBox" maskContentUnits="userSpaceOnUse" id="mask-2-5"><use id="use1160"/></mask><rect rx="1.5" height="8" width="3" y="11" x="1" id="path-3"/><mask fill="white" height="8" width="3" y="0" x="0" maskUnits="objectBoundingBox" maskContentUnits="userSpaceOnUse" id="mask-4-0"><use id="use1164"/></mask><linearGradient id="linearGradient1281" x1="33.863281" y1="307.04111" x2="33.863281" y2="266.97229" gradientUnits="userSpaceOnUse"/><linearGradient id="linearGradient1303" x1="33.863281" y1="307.0928" x2="33.863281" y2="267.06793" gradientUnits="userSpaceOnUse"/><filter id="filter1474" x="-0.10851341" width="1.2170268" y="-0.17557838" height="1.3511568" color-interpolation-filters="sRGB"><feGaussianBlur stdDeviation="0.67293378" id="feGaussianBlur1476"/></filter><linearGradient id="linearGradient874" x1="33.866669" y1="306.97028" x2="33.866669" y2="266.79611" gradientUnits="userSpaceOnUse" gradientTransform="matrix(3.7795276,0,0,3.7795276,0,-866.51955)"/></defs><metadata id="metadata5"/><g id="layer2" display="none"><rect id="rect823" width="82.165527" height="98.908691" x="-6.5112305" y="-16.18919" fill="#000"/></g><g id="layer4"><ellipse id="path1352" cx="33.848053" cy="65.897781" rx="7.4416656" ry="4.5992026" transform="matrix(0.64226028,0,0,0.55807666,12.111233,27.765241)" style="fill-opacity:0.05490196;fill:#000;filter:url(#filter1474)"/></g><g transform="translate(0,-229.26663)" id="g825"><path id="path1222" d="m55.827085 254.35747c-0.000001 3.0321-0.614503 5.92067-1.72576 8.54798-5.051255 11.17145-16.957966 19.17532-20.234656 31.4041-3.254477-12.14588-15.696808-21.09783-20.234657-31.4041-1.111258-2.62731-1.725759-5.51588-1.72576-8.54798-0.000004-12.1284 9.832012-21.96042 21.960417-21.96042 12.128404 0 21.96042 9.83202 21.960416 21.96042z" fill="#fff"/></g><g id="g1248" transform="translate(0,-229.26663)"><path id="path1263" d="m33.867188 233.91602c-11.307065 0-20.44141 9.13434-20.441407 20.4414 0.000001 2.82368 0.57349 5.50668 1.605469 7.94922 2.129719 4.82804 6.273784 9.58242 10.380859 14.6543 3.222108 3.97902 5.896449 7.62671 8.451172 17.16106 2.585044-9.64751 5.111282-12.99043 8.277344-16.872 4.038117-4.95071 8.165998-9.65812 10.564453-14.95117 1.029767-2.43999 1.601562-5.11991 1.601563-7.94141 0.000003-11.30722-9.132391-20.4414-20.439453-20.4414z" fill="#ffab00"/><path d="m33.867188 233.91602c-11.307065 0-20.44141 9.13434-20.441407 20.4414 0.000001 2.82368 0.57349 5.50668 1.605469 7.94922 2.129719 4.82804 6.273784 9.58242 10.380859 14.6543 3.222108 3.97902 5.896449 7.62671 8.451172 17.16106 2.585044-9.64751 5.111282-12.99043 8.277344-16.872 4.038117-4.95071 8.165998-9.65812 10.564453-14.95117 1.029767-2.43999 1.601562-5.11991 1.601563-7.94141 0.000003-11.30722-9.132391-20.4414-20.439453-20.4414z" id="path1273" fill="url(#linearGradient1281)"/></g><g id="layer5" display="none"><path d="m25.561641 25.778686h16.615837c-0.315805 2.416836-1.129766 4.743098-4.445003 6.614582h-7.884584c-2.845143-1.567484-4.196738-3.807064-4.28625-6.614582z" id="path1322" fill="#ff8f00"/><path class="st0" d="m39.108309 23.132851 3.889374-3.730623-0.9525-1.031877-5.318124 4.7625zm0.873126-7.064373-1.270002-0.714375-5.23875 7.778748h1.905zm-15.71625 8.651874 0.07938 0.47625c0.317499 3.413124 2.460624 6.588126 5.556249 7.937499l0.07938 0.317502h7.62l0.15876-0.47625c3.095625-1.42875 5.23875-4.206876 5.556252-7.540626v-0.714375zm12.938124 7.14375h-6.826251c-2.222499-0.793749-3.81-3.174999-4.28625-5.556249H41.64831c-0.555627 2.38125-2.222502 4.7625-4.445001 5.556249z" id="path4" style="fill:#fff;stroke-width:0.79374993"/></g><g transform="translate(0,-229.26663)" id="g1257" display="none"><path id="path1255" d="m33.867188 233.91602c-11.307065 0-20.44141 9.13434-20.441407 20.4414 0.000001 2.82368 0.57349 5.50668 1.605469 7.94922 2.129719 4.82804 6.273784 9.58242 10.380859 14.6543 3.222108 3.97902 5.896449 7.62671 8.451172 17.16106 2.585044-9.64751 5.111282-12.99043 8.277344-16.872 4.038117-4.95071 8.165998-9.65812 10.564453-14.95117 1.029767-2.43999 1.601562-5.11991 1.601563-7.94141 0.000003-11.30722-9.132391-20.4414-20.439453-20.4414z" fill="#607d8b"/><path d="m33.867188 233.91602c-11.307065 0-20.44141 9.13434-20.441407 20.4414 0.000001 2.82368 0.57349 5.50668 1.605469 7.94922 2.129719 4.82804 6.273784 9.58242 10.380859 14.6543 3.222108 3.97902 5.896449 7.62671 8.451172 17.16106 2.585044-9.64751 5.111282-12.99043 8.277344-16.872 4.038117-4.95071 8.165998-9.65812 10.564453-14.95117 1.029767-2.43999 1.601562-5.11991 1.601563-7.94141 0.000003-11.30722-9.132391-20.4414-20.439453-20.4414z" id="path1295" fill="url(#linearGradient1303)"/></g><g id="layer6" display="none"><path d="m28.80279 17.983396h10.186459c2.254478 3.658668 0.754327 9.492585-5.08951 9.919811-5.483633-0.686409-7.605724-5.27163-5.096949-9.919811z" id="path1331" fill="#78909c"/><path class="st0" d="m38.936333 26.767564c1.349373-1.42875 2.063748-3.254376 2.063748-5.079999 0-1.587501-0.47625-3.175002-1.587498-4.445001-0.15876-0.23811-0.396876-0.317499-0.635001-0.317499h-9.842499c-0.23811 0-0.47625 0.07938-0.635001 0.317499-1.111251 1.269999-1.587501 2.8575-1.587501 4.445001 0 1.825623 0.714375 3.651249 2.063751 5.079999 1.190625 1.190625 2.698749 1.905 4.28625 2.063751v5.556249h-3.174999v1.587501h7.937499v-1.587501h-3.174999v-5.635626c1.587498-0.15876 3.095625-0.793749 4.28625-1.984374zm-8.969376-1.190625c-1.984374-1.905-2.222499-4.683126-0.635001-7.064376h9.128127c1.508124 2.38125 1.269999 5.159376-0.635001 7.064376-2.222499 2.222499-5.715 2.222499-7.858125 0zm1.508124-3.889374h-1.587498c0 0.793749 0.396873 2.063748 1.190625 2.778123 0.714375 0.793752 1.746249 1.190625 2.778123 1.190625v-1.587498c-0.634998 0-1.269999-0.23811-1.666875-0.714375-0.47625-0.396876-0.714375-0.873126-0.714375-1.666875z" id="path4-8" style="fill:#fff;stroke-width:0.79374993"/></g><g id="g1261" transform="translate(0,-229.26663)"><path d="M127.98633 17.572266V245.12305c9.77024-36.46303 19.31894-49.09903 31.28515-63.76953 15.26218-18.71135 30.86467-36.50259 39.92969-56.50782 3.89203-9.22201 6.05273-19.34973 6.05274-30.013669 0.00001-42.735949-34.5166-77.259765-77.25196-77.259765-0.005 0-0.0104-0.000001-0.0156 0z" transform="matrix(0.26458333,0,0,0.26458333,0,229.26663)" id="path1259" fill="#c2185b"/><path d="M127.98633 17.572266V245.12305c9.77024-36.46303 19.31894-49.09903 31.28515-63.76953 15.26218-18.71135 30.86467-36.50259 39.92969-56.50782 3.89203-9.22201 6.05273-19.34973 6.05274-30.013669 0.00001-42.735949-34.5166-77.259765-77.25196-77.259765-0.005 0-0.0104-0.000001-0.0156 0z" transform="matrix(0.26458333,0,0,0.26458333,0,229.26663)" id="path866" fill="url(#linearGradient874)"/></g><g id="layer7"><path d="m25.375196 18.17356h16.933332v3.439584c-2.250037 2.196588-1.273554 3.772691 0 5.291665v3.439584H25.375196v-3.439584c1.365176-1.479477 1.921901-3.127381 0-5.291665z" id="path1344" fill="#d81b60"/><path d="M95.90625 68.6875L95.90625 81.6875C103.17013 89.867471 101.06597 96.095776 95.90625 101.6875L95.90625 114.6875 127.98633 114.6875 127.98633 68.6875 95.90625 68.6875z" transform="scale(0.26458333)" id="path876" fill="#ff8f00"/><g transform="matrix(0.79374999,0,0,0.79374999,24.316863,14.733977)" id="g8" fill="#fff"><path class="st0" d="M24 9.2V3H0v6.2c1.2 0.4 2 1.5 2 2.8 0 1.3-0.8 2.4-2 2.8V21H24V14.8C22.8 14.4 22 13.3 22 12 22 10.7 22.8 9.6 24 9.2ZM22 8c-1.2 0.9-2 2.4-2 4 0 1.6 0.8 3.1 2 4v3H2V16C3.2 15.1 4 13.6 4 12 4 10.4 3.2 8.9 2 8V5h20z" id="path4-9" fill="#fff"/><path class="st0" d="M10.6 12 12 13.4 13.4 12 12 10.6ZM16 10.6 14.6 12 16 13.4 17.4 12ZM6.6 12 8 13.4 9.4 12 8 10.6Z" id="path6" fill="#fff"/></g></g><g transform="translate(0,-229.26663)" id="g4518" style="display:none;opacity:0.5"><circle r="7.4083333" cy="253.60007" cx="33.866665" id="circle4516" fill="#fff"/></g></svg>
