<?xml version="1.0" encoding="UTF-8" standalone="no"?>
<!-- Created with Inkscape (http://www.inkscape.org/) -->

<svg
   xmlns:dc="http://purl.org/dc/elements/1.1/"
   xmlns:cc="http://creativecommons.org/ns#"
   xmlns:rdf="http://www.w3.org/1999/02/22-rdf-syntax-ns#"
   xmlns:svg="http://www.w3.org/2000/svg"
   xmlns="http://www.w3.org/2000/svg"
   xmlns:xlink="http://www.w3.org/1999/xlink"
   xmlns:sodipodi="http://sodipodi.sourceforge.net/DTD/sodipodi-0.dtd"
   xmlns:inkscape="http://www.inkscape.org/namespaces/inkscape"
   width="256"
   height="256"
   viewBox="0 0 67.733332 67.733335"
   version="1.1"
   id="svg8"
   inkscape:version="0.92.2 (5c3e80d, 2017-08-06)"
   sodipodi:docname="BAR.svg">
  <defs
     id="defs2">
    <linearGradient
       inkscape:collect="always"
       id="linearGradient1301">
      <stop
         style="stop-color:#546e7a;stop-opacity:1;"
         offset="0"
         id="stop1297" />
      <stop
         style="stop-color:#546e7a;stop-opacity:0;"
         offset="1"
         id="stop1299" />
    </linearGradient>
    <mask
       id="mask-2"
       maskContentUnits="userSpaceOnUse"
       maskUnits="objectBoundingBox"
       x="0"
       y="0"
       width="3"
       height="8"
       fill="white">
      <rect
         rx="0.10500651"
         height="0.56003469"
         width="0.21001302"
         y="0.77004772"
         x="0"
         id="use7"
         style="stroke-width:0.07000434" />
    </mask>
    <mask
       id="mask-4"
       maskContentUnits="userSpaceOnUse"
       maskUnits="objectBoundingBox"
       x="0"
       y="0"
       width="3"
       height="8"
       fill="white">
      <rect
         rx="0.10500651"
         height="0.56003469"
         width="0.21001302"
         y="0.77004772"
         x="0.070004337"
         id="use11"
         style="stroke-width:0.07000434" />
    </mask>
    <rect
       rx="1.5"
       height="8"
       width="3"
       y="11"
       x="0"
       id="path-1" />
    <mask
       fill="white"
       height="8"
       width="3"
       y="0"
       x="0"
       maskUnits="objectBoundingBox"
       maskContentUnits="userSpaceOnUse"
       id="mask-2-5">
      <use
         id="use1160"
         xlink:href="#path-1" />
    </mask>
    <rect
       rx="1.5"
       height="8"
       width="3"
       y="11"
       x="1"
       id="path-3" />
    <mask
       fill="white"
       height="8"
       width="3"
       y="0"
       x="0"
       maskUnits="objectBoundingBox"
       maskContentUnits="userSpaceOnUse"
       id="mask-4-0">
      <use
         id="use1164"
         xlink:href="#path-3" />
    </mask>
    <linearGradient
       inkscape:collect="always"
       xlink:href="#linearGradient1301"
       id="linearGradient1303"
       x1="33.863281"
       y1="307.0928"
       x2="33.863281"
       y2="267.06793"
       gradientUnits="userSpaceOnUse" />
    <filter
       inkscape:collect="always"
       style="color-interpolation-filters:sRGB"
       id="filter1474"
       x="-0.10851341"
       width="1.2170268"
       y="-0.17557838"
       height="1.3511568">
      <feGaussianBlur
         inkscape:collect="always"
         stdDeviation="0.67293378"
         id="feGaussianBlur1476" />
    </filter>
  </defs>
  <sodipodi:namedview
     id="base"
     pagecolor="#ffffff"
     bordercolor="#666666"
     borderopacity="1.0"
     inkscape:pageopacity="0.0"
     inkscape:pageshadow="2"
     inkscape:zoom="5.1200001"
     inkscape:cx="65.252845"
     inkscape:cy="86.475972"
     inkscape:document-units="mm"
     inkscape:current-layer="layer6"
     showgrid="false"
     units="px"
     showguides="false"
     inkscape:window-width="2560"
     inkscape:window-height="1373"
     inkscape:window-x="-9"
     inkscape:window-y="-9"
     inkscape:window-maximized="1" />
  <metadata
     id="metadata5">
    <rdf:RDF>
      <cc:Work
         rdf:about="">
        <dc:format>image/svg+xml</dc:format>
        <dc:type
           rdf:resource="http://purl.org/dc/dcmitype/StillImage" />
        <dc:title />
      </cc:Work>
    </rdf:RDF>
  </metadata>
  <g
     inkscape:groupmode="layer"
     id="layer4"
     inkscape:label="shadow"
     style="display:inline"
     sodipodi:insensitive="true">
    <ellipse
       style="opacity:1;fill:#000000;fill-opacity:0.05490196;fill-rule:nonzero;stroke:none;stroke-width:0.21166667;stroke-linecap:round;stroke-linejoin:round;stroke-miterlimit:4;stroke-dasharray:none;stroke-dashoffset:0;stroke-opacity:1;filter:url(#filter1474)"
       id="path1352"
       cx="33.848053"
       cy="65.897781"
       rx="7.4416656"
       ry="4.5992026"
       transform="matrix(0.64226028,0,0,0.55807666,12.111233,27.765241)" />
  </g>
  <g
     style="display:inline"
     transform="translate(0,-229.26663)"
     id="g825"
     inkscape:groupmode="layer"
     inkscape:label="border"
     sodipodi:insensitive="true">
    <path
       sodipodi:nodetypes="scccsss"
       inkscape:connector-curvature="0"
       id="path1222"
       d="m 55.827085,254.35747 c -10e-7,3.0321 -0.614503,5.92067 -1.72576,8.54798 -5.051255,11.17145 -16.957966,19.17532 -20.234656,31.4041 -3.254477,-12.14588 -15.696808,-21.09783 -20.234657,-31.4041 -1.111258,-2.62731 -1.725759,-5.51588 -1.72576,-8.54798 -4e-6,-12.1284 9.832012,-21.96042 21.960417,-21.96042 12.128404,0 21.96042,9.83202 21.960416,21.96042 z"
       style="opacity:1;fill:#ffffff;fill-opacity:1;fill-rule:nonzero;stroke:none;stroke-width:0.22084779;stroke-linecap:round;stroke-linejoin:round;stroke-miterlimit:4;stroke-dasharray:none;stroke-dashoffset:0;stroke-opacity:1" />
  </g>
  <g
     style="display:inline"
     transform="translate(0,-229.26663)"
     id="g1257"
     inkscape:groupmode="layer"
     inkscape:label="BAR"
     sodipodi:insensitive="true">
    <path
       sodipodi:nodetypes="sscscscss"
       inkscape:connector-curvature="0"
       id="path1255"
       d="m 33.867188,233.91602 c -11.307065,0 -20.44141,9.13434 -20.441407,20.4414 10e-7,2.82368 0.57349,5.50668 1.605469,7.94922 2.129719,4.82804 6.273784,9.58242 10.380859,14.6543 3.222108,3.97902 5.896449,7.62671 8.451172,17.16106 2.585044,-9.64751 5.111282,-12.99043 8.277344,-16.872 4.038117,-4.95071 8.165998,-9.65812 10.564453,-14.95117 1.029767,-2.43999 1.601562,-5.11991 1.601563,-7.94141 3e-6,-11.30722 -9.132391,-20.4414 -20.439453,-20.4414 z"
       style="opacity:1;fill:#607d8b;fill-opacity:1;fill-rule:nonzero;stroke:none;stroke-width:0.22084779;stroke-linecap:round;stroke-linejoin:round;stroke-miterlimit:4;stroke-dasharray:none;stroke-dashoffset:0;stroke-opacity:1" />
    <path
       style="opacity:1;fill:url(#linearGradient1303);fill-opacity:1;fill-rule:nonzero;stroke:none;stroke-width:0.22084779;stroke-linecap:round;stroke-linejoin:round;stroke-miterlimit:4;stroke-dasharray:none;stroke-dashoffset:0;stroke-opacity:1"
       d="m 33.867188,233.91602 c -11.307065,0 -20.44141,9.13434 -20.441407,20.4414 10e-7,2.82368 0.57349,5.50668 1.605469,7.94922 2.129719,4.82804 6.273784,9.58242 10.380859,14.6543 3.222108,3.97902 5.896449,7.62671 8.451172,17.16106 2.585044,-9.64751 5.111282,-12.99043 8.277344,-16.872 4.038117,-4.95071 8.165998,-9.65812 10.564453,-14.95117 1.029767,-2.43999 1.601562,-5.11991 1.601563,-7.94141 3e-6,-11.30722 -9.132391,-20.4414 -20.439453,-20.4414 z"
       id="path1295"
       inkscape:connector-curvature="0"
       sodipodi:nodetypes="sscscscss" />
  </g>
  <g
     inkscape:groupmode="layer"
     id="layer6"
     inkscape:label="BAR_ICON"
     style="display:inline"
     sodipodi:insensitive="true">
    <path
       style="fill:#78909c;fill-opacity:1;stroke:none;stroke-width:0.26458332px;stroke-linecap:butt;stroke-linejoin:miter;stroke-opacity:1"
       d="m 28.80279,17.983396 h 10.186459 c 2.254478,3.658668 0.754327,9.492585 -5.08951,9.919811 -5.483633,-0.686409 -7.605724,-5.27163 -5.096949,-9.919811 z"
       id="path1331"
       inkscape:connector-curvature="0"
       sodipodi:nodetypes="cccc" />
    <path
       inkscape:connector-curvature="0"
       class="st0"
       d="m 38.936333,26.767564 c 1.349373,-1.42875 2.063748,-3.254376 2.063748,-5.079999 0,-1.587501 -0.47625,-3.175002 -1.587498,-4.445001 -0.15876,-0.23811 -0.396876,-0.317499 -0.635001,-0.317499 h -9.842499 c -0.23811,0 -0.47625,0.07938 -0.635001,0.317499 -1.111251,1.269999 -1.587501,2.8575 -1.587501,4.445001 0,1.825623 0.714375,3.651249 2.063751,5.079999 1.190625,1.190625 2.698749,1.905 4.28625,2.063751 v 5.556249 h -3.174999 v 1.587501 h 7.937499 v -1.587501 h -3.174999 v -5.635626 c 1.587498,-0.15876 3.095625,-0.793749 4.28625,-1.984374 z m -8.969376,-1.190625 c -1.984374,-1.905 -2.222499,-4.683126 -0.635001,-7.064376 h 9.128127 c 1.508124,2.38125 1.269999,5.159376 -0.635001,7.064376 -2.222499,2.222499 -5.715,2.222499 -7.858125,0 z m 1.508124,-3.889374 h -1.587498 c 0,0.793749 0.396873,2.063748 1.190625,2.778123 0.714375,0.793752 1.746249,1.190625 2.778123,1.190625 v -1.587498 c -0.634998,0 -1.269999,-0.23811 -1.666875,-0.714375 -0.47625,-0.396876 -0.714375,-0.873126 -0.714375,-1.666875 z"
       id="path4-8"
       style="fill:#ffffff;stroke-width:0.79374993" />
  </g>
</svg>
