<svg xmlns:svg="http://www.w3.org/2000/svg" xmlns="http://www.w3.org/2000/svg" width="256" height="256" viewBox="0 0 67.733332 67.733335" version="1.1" id="svg8"><defs id="defs2"><linearGradient id="linearGradient1301"><stop offset="0" id="stop1297" style="stop-color:#546e7a;stop-opacity:1"/><stop offset="1" id="stop1299" style="stop-color:#546e7a;stop-opacity:0"/></linearGradient><linearGradient id="linearGradient1279"><stop offset="0" id="stop1275" style="stop-color:#ff8f00;stop-opacity:1"/><stop offset="1" id="stop1277" style="stop-color:#ff8f00;stop-opacity:0"/></linearGradient><mask id="mask-2" maskContentUnits="userSpaceOnUse" maskUnits="objectBoundingBox" x="0" y="0" width="3" height="8" fill="white"><rect rx="0.10500651" height="0.56003469" width="0.21001302" y="0.77004772" x="0" id="use7" stroke-width="0.07000434"/></mask><mask id="mask-4" maskContentUnits="userSpaceOnUse" maskUnits="objectBoundingBox" x="0" y="0" width="3" height="8" fill="white"><rect rx="0.10500651" height="0.56003469" width="0.21001302" y="0.77004772" x="0.070004337" id="use11" stroke-width="0.07000434"/></mask><rect rx="1.5" height="8" width="3" y="11" x="0" id="path-1"/><mask fill="white" height="8" width="3" y="0" x="0" maskUnits="objectBoundingBox" maskContentUnits="userSpaceOnUse" id="mask-2-5"><use id="use1160"/></mask><rect rx="1.5" height="8" width="3" y="11" x="1" id="path-3"/><mask fill="white" height="8" width="3" y="0" x="0" maskUnits="objectBoundingBox" maskContentUnits="userSpaceOnUse" id="mask-4-0"><use id="use1164"/></mask><linearGradient id="linearGradient1281" x1="33.863281" y1="307.04111" x2="33.863281" y2="266.97229" gradientUnits="userSpaceOnUse"/><linearGradient id="linearGradient1303" x1="33.863281" y1="307.0928" x2="33.863281" y2="267.06793" gradientUnits="userSpaceOnUse" gradientTransform="matrix(3.7795276,0,0,3.7795276,0,-866.51955)"/><filter id="filter1474" x="-0.10851341" width="1.2170268" y="-0.17557838" height="1.3511568" color-interpolation-filters="sRGB"><feGaussianBlur stdDeviation="0.67293378" id="feGaussianBlur1476"/></filter></defs><metadata id="metadata5"/><g id="layer4"><ellipse id="path1352" cx="33.848053" cy="65.897781" rx="7.4416656" ry="4.5992026" transform="matrix(0.64226028,0,0,0.55807666,12.111233,27.765241)" style="fill-opacity:0.05490196;fill:#000;filter:url(#filter1474)"/></g><g transform="translate(0,-229.26663)" id="g825"><path id="path1222" d="m55.827085 254.35747c-0.000001 3.0321-0.614503 5.92067-1.72576 8.54798-5.051255 11.17145-16.957966 19.17532-20.234656 31.4041-3.254477-12.14588-15.696808-21.09783-20.234657-31.4041-1.111258-2.62731-1.725759-5.51588-1.72576-8.54798-0.000004-12.1284 9.832012-21.96042 21.960417-21.96042 12.128404 0 21.96042 9.83202 21.960416 21.96042z" fill="#fff"/></g><g id="g1248" transform="translate(0,-229.26663)"><path id="path1263" d="m33.867188 233.91602c-11.307065 0-20.44141 9.13434-20.441407 20.4414 0.000001 2.82368 0.57349 5.50668 1.605469 7.94922 2.129719 4.82804 6.273784 9.58242 10.380859 14.6543 3.222108 3.97902 5.896449 7.62671 8.451172 17.16106 2.585044-9.64751 5.111282-12.99043 8.277344-16.872 4.038117-4.95071 8.165998-9.65812 10.564453-14.95117 1.029767-2.43999 1.601562-5.11991 1.601563-7.94141 0.000003-11.30722-9.132391-20.4414-20.439453-20.4414z" fill="#ffab00"/><path d="m33.867188 233.91602c-11.307065 0-20.44141 9.13434-20.441407 20.4414 0.000001 2.82368 0.57349 5.50668 1.605469 7.94922 2.129719 4.82804 6.273784 9.58242 10.380859 14.6543 3.222108 3.97902 5.896449 7.62671 8.451172 17.16106 2.585044-9.64751 5.111282-12.99043 8.277344-16.872 4.038117-4.95071 8.165998-9.65812 10.564453-14.95117 1.029767-2.43999 1.601562-5.11991 1.601563-7.94141 0.000003-11.30722-9.132391-20.4414-20.439453-20.4414z" id="path1273" fill="url(#linearGradient1281)"/></g><g id="layer5"><circle id="path871" cx="33.744713" cy="24.480158" r="6.4078774" fill="#ff8f00"/></g><g transform="translate(0,-229.26663)" id="g1257"><path d="M128 17.572266V245.07422c9.7655-36.42393 19.31083-49.05703 31.27148-63.7207 15.26218-18.71135 30.86467-36.50259 39.92969-56.50782 3.89203-9.22201 6.05273-19.34973 6.05274-30.013669 0.00001-42.735949-34.5166-77.259765-77.25196-77.259765-0.00065 0-0.001 0-0.002 0z" transform="matrix(0.26458333,0,0,0.26458333,0,229.26663)" id="path1255" fill="#607d8b"/><path d="M128 17.572266V245.07422c9.7655-36.42393 19.31083-49.05703 31.27148-63.7207 15.26218-18.71135 30.86467-36.50259 39.92969-56.50782 3.89203-9.22201 6.05273-19.34973 6.05274-30.013669 0.00001-42.735949-34.5166-77.259765-77.25196-77.259765-0.00065 0-0.001 0-0.002 0z" transform="matrix(0.26458333,0,0,0.26458333,0,229.26663)" id="path1295" fill="url(#linearGradient1303)"/></g><g id="layer6"><path d="M127.98633 67.535156V116.73242A24.609375 24.609375 0 0 0 152.34375 92.132812 24.609375 24.609375 0 0 0 127.98633 67.535156Z" id="path873" transform="scale(0.26458333)" fill="#78909c"/></g><g id="layer1"><circle id="path867" cx="33.822224" cy="24.454321" r="6.847127" style="fill:none;stroke-linecap:round;stroke-linejoin:round;stroke-width:1.58749998;stroke:#fff"/></g></svg>
