<svg xmlns="http://www.w3.org/2000/svg" version="1.1" id="Layer_1" x="0px" y="0px" width="24px" height="24px" viewBox="0 0 24 24" xml:space="preserve"><path class="st0" d="M22.9 17.3l-1.9-1.9c0.6-1.4 0.9-2.8 0.9-4.4 0-6.1-4.9-11-11-11C8.1 0 5.3 1.1 3.2 3.2 1.1 5.3 0 8.1 0 11c0 6.1 4.9 11 11 11 1.6 0 3.1-0.3 4.4-0.9l1.9 1.9c0.7 0.7 1.7 1.1 2.6 1.1 1 0 2.1-0.4 2.9-1.2C24.3 21.2 24.4 18.8 22.9 17.3zM11 20c-5 0-9-4-9-9 0-2.4 0.9-4.7 2.6-6.4C6.3 2.9 8.6 2 11 2c5 0 9 4 9 9S16 20 11 20zM21.4 21.4c-0.8 0.8-2 0.8-2.7 0.1l-1.5-1.5c1.1-0.8 2.1-1.7 2.8-2.8l1.5 1.5C22.2 19.4 22.2 20.6 21.4 21.4z"/><path class="st0" d="M12.9 4.3C11.1 3.8 9.2 4 7.6 4.9 6 5.8 4.8 7.3 4.3 9.1 4.1 9.6 4.4 10.2 5 10.3c0.1 0 0.2 0 0.3 0 0.4 0 0.8-0.3 1-0.7 0.4-1.3 1.2-2.3 2.4-3 1.2-0.6 2.5-0.8 3.8-0.4 0.5 0.2 1.1-0.2 1.2-0.7C13.8 5 13.5 4.4 12.9 4.3z"/></svg>
