<svg version="1.1" id="Layer_1" xmlns="http://www.w3.org/2000/svg" x="0px" y="0px" width="24px" height="24px" viewBox="0 0 24 24" xml:space="preserve" enable-background="new 0 0 24 24"><path class="st0" d="M24 9.2V3H0v6.2c1.2 0.4 2 1.5 2 2.8 0 1.3-0.8 2.4-2 2.8V21h24v-6.2c-1.2-0.4-2-1.5-2-2.8C22 10.7 22.8 9.6 24 9.2zM22 8c-1.2 0.9-2 2.4-2 4 0 1.6 0.8 3.1 2 4v3H2v-3c1.2-0.9 2-2.4 2-4 0-1.6-0.8-3.1-2-4V5h20V8z"/><path class="st0" d="M10.6 12l1.4 1.4 1.4-1.4L12 10.6 10.6 12zM16 10.6L14.6 12l1.4 1.4 1.4-1.4L16 10.6zM6.6 12L8 13.4 9.4 12 8 10.6 6.6 12z"/></svg>
