<svg xmlns="http://www.w3.org/2000/svg" xml:space="preserve">
  <symbol id="food"><path d="M18.7 11l4.9-4.7L22.4 5l-6.7 6H18.7zM19.8 2.1l-1.6-0.9L11.6 11H14L19.8 2.1zM0 13l0.1 0.6c0.4 4.3 3.1 8.3 7 10L7.2 24h9.6l0.2-0.6c3.9-1.8 6.6-5.3 7-9.5L24 13H0zM16.3 22H7.7c-2.8-1-4.8-4-5.4-7h19.6C21.2 18 19.1 21 16.3 22z"/></symbol>
  <symbol id="drink"><path d="M18.4 12.4C20.1 10.6 21 8.3 21 6c0-2-0.6-4-2-5.6C18.8 0.1 18.5 0 18.2 0H5.8C5.5 0 5.2 0.1 5 0.4 3.6 2 3 4 3 6c0 2.3 0.9 4.6 2.6 6.4 1.5 1.5 3.4 2.4 5.4 2.6V22H7v2h10v-2h-4v-7.1C15 14.7 16.9 13.9 18.4 12.4zM7.1 10.9C4.6 8.5 4.3 5 6.3 2h11.5c1.9 3 1.6 6.5-0.8 8.9C14.2 13.7 9.8 13.7 7.1 10.9zM9 6H7c0 1 0.5 2.6 1.5 3.5C9.4 10.5 10.7 11 12 11V9c-0.8 0-1.6-0.3-2.1-0.9C9.3 7.6 9 7 9 6z"/></symbol>
  <symbol id="ticket"><path d="M24 9.2V3H0v6.2c1.2 0.4 2 1.5 2 2.8 0 1.3-0.8 2.4-2 2.8V21h24v-6.2c-1.2-0.4-2-1.5-2-2.8C22 10.7 22.8 9.6 24 9.2zM22 8c-1.2 0.9-2 2.4-2 4 0 1.6 0.8 3.1 2 4v3H2v-3c1.2-0.9 2-2.4 2-4 0-1.6-0.8-3.1-2-4V5h20V8z"/><path class="st0" d="M10.6 12l1.4 1.4 1.4-1.4L12 10.6 10.6 12zM16 10.6L14.6 12l1.4 1.4 1.4-1.4L16 10.6zM6.6 12L8 13.4 9.4 12 8 10.6 6.6 12z"/></symbol>
  <symbol id="search"><path d="M22.9 17.3l-1.9-1.9c0.6-1.4 0.9-2.8 0.9-4.4 0-6.1-4.9-11-11-11C8.1 0 5.3 1.1 3.2 3.2 1.1 5.3 0 8.1 0 11c0 6.1 4.9 11 11 11 1.6 0 3.1-0.3 4.4-0.9l1.9 1.9c0.7 0.7 1.7 1.1 2.6 1.1 1 0 2.1-0.4 2.9-1.2C24.3 21.2 24.4 18.8 22.9 17.3zM11 20c-5 0-9-4-9-9 0-2.4 0.9-4.7 2.6-6.4C6.3 2.9 8.6 2 11 2c5 0 9 4 9 9S16 20 11 20zM21.4 21.4c-0.8 0.8-2 0.8-2.7 0.1l-1.5-1.5c1.1-0.8 2.1-1.7 2.8-2.8l1.5 1.5C22.2 19.4 22.2 20.6 21.4 21.4z"/><path class="st0" d="M12.9 4.3C11.1 3.8 9.2 4 7.6 4.9 6 5.8 4.8 7.3 4.3 9.1 4.1 9.6 4.4 10.2 5 10.3c0.1 0 0.2 0 0.3 0 0.4 0 0.8-0.3 1-0.7 0.4-1.3 1.2-2.3 2.4-3 1.2-0.6 2.5-0.8 3.8-0.4 0.5 0.2 1.1-0.2 1.2-0.7C13.8 5 13.5 4.4 12.9 4.3z"/></symbol>
</svg>
