<svg version="1.1" id="Layer_1" xmlns="http://www.w3.org/2000/svg" x="0px" y="0px" viewBox="0 0 24 24" xml:space="preserve" enable-background="new 0 0 24 24"><path d="M18.4 12.4C20.1 10.6 21 8.3 21 6c0-2-0.6-4-2-5.6C18.8 0.1 18.5 0 18.2 0H5.8C5.5 0 5.2 0.1 5 0.4 3.6 2 3 4 3 6c0 2.3 0.9 4.6 2.6 6.4 1.5 1.5 3.4 2.4 5.4 2.6V22H7v2h10v-2h-4v-7.1C15 14.7 16.9 13.9 18.4 12.4zM7.1 10.9C4.6 8.5 4.3 5 6.3 2h11.5c1.9 3 1.6 6.5-0.8 8.9C14.2 13.7 9.8 13.7 7.1 10.9zM9 6H7c0 1 0.5 2.6 1.5 3.5C9.4 10.5 10.7 11 12 11V9c-0.8 0-1.6-0.3-2.1-0.9C9.3 7.6 9 7 9 6z"/></svg>
